<?xml version="1.0" encoding="UTF-8" standalone="no"?>
<!-- Created with Inkscape (http://www.inkscape.org/) -->

<svg
   xmlns:osb="http://www.openswatchbook.org/uri/2009/osb"
   xmlns:dc="http://purl.org/dc/elements/1.1/"
   xmlns:cc="http://creativecommons.org/ns#"
   xmlns:rdf="http://www.w3.org/1999/02/22-rdf-syntax-ns#"
   xmlns:svg="http://www.w3.org/2000/svg"
   xmlns="http://www.w3.org/2000/svg"
   xmlns:sodipodi="http://sodipodi.sourceforge.net/DTD/sodipodi-0.dtd"
   xmlns:inkscape="http://www.inkscape.org/namespaces/inkscape"
   width="210mm"
   height="297mm"
   viewBox="0 0 210 297"
   version="1.1"
   id="svg8"
   inkscape:export-xdpi="581.37274"
   inkscape:export-ydpi="581.37274">
  <g
     inkscape:label="Layer 1"
     inkscape:groupmode="layer"
     id="layer1">
    <path
       style="fill:#000000;fill-opacity:1;fill-rule:evenodd;stroke:#000000;stroke-width:0.99999994px;stroke-linecap:butt;stroke-linejoin:miter;stroke-opacity:1"
       d="M 396.54297 197.61328 L 335.85156 357.42383 L 357.80469 388.32812 A 151.1811 151.1811 0 0 1 396.54297 383.20117 A 151.1811 151.1811 0 0 1 435.10352 388.39062 L 457.20508 357.60742 L 396.54297 197.61328 z M 158.41016 296.25 L 228.49805 452.16992 L 265.94727 458.51172 A 151.1811 151.1811 0 0 1 320.57812 403.88672 L 314.43945 366.48828 L 158.41016 296.25 z M 634.67383 296.25 L 478.75586 366.33789 L 472.41406 403.78711 A 151.1811 151.1811 0 0 1 527.03711 458.41992 L 564.4375 452.2793 L 634.67383 296.25 z M 396.54102 394.54102 A 139.84252 139.84252 0 0 0 364.89648 398.31445 L 373.20898 410.01562 A 126.61417 126.61417 0 0 1 396.54102 407.76758 A 126.61417 126.61417 0 0 1 419.60742 409.97461 L 427.99023 398.29883 A 139.84252 139.84252 0 0 0 396.54102 394.54102 z M 470.39062 415.72852 L 467.99805 429.86133 A 126.61417 126.61417 0 0 1 500.76758 462.73242 L 515.00781 460.39453 A 139.84252 139.84252 0 0 0 470.39062 415.72852 z M 322.55469 415.91602 A 139.84252 139.84252 0 0 0 277.88867 460.5332 L 292.02148 462.92773 A 126.61417 126.61417 0 0 1 324.89062 430.15625 L 322.55469 415.91602 z M 573.50195 473.69141 L 542.5957 495.64648 A 151.1811 151.1811 0 0 1 547.72266 534.38281 A 151.1811 151.1811 0 0 1 542.5332 572.94336 L 573.31836 595.04688 L 733.31055 534.38281 L 573.50195 473.69141 z M 219.76562 473.71875 L 59.773438 534.38281 L 219.58203 595.07422 L 250.48828 573.11914 A 151.1811 151.1811 0 0 1 245.36133 534.38281 A 151.1811 151.1811 0 0 1 250.55078 495.82227 L 219.76562 473.71875 z M 532.61133 502.73828 L 520.9082 511.05078 A 126.61417 126.61417 0 0 1 523.15625 534.38281 A 126.61417 126.61417 0 0 1 520.94922 557.44727 L 532.62695 565.83203 A 139.84252 139.84252 0 0 0 536.38477 534.38281 A 139.84252 139.84252 0 0 0 532.61133 502.73828 z M 260.45898 502.93359 A 139.84252 139.84252 0 0 0 256.69922 534.38281 A 139.84252 139.84252 0 0 0 260.47266 566.02734 L 272.17578 557.71289 A 126.61417 126.61417 0 0 1 269.92773 534.38281 A 126.61417 126.61417 0 0 1 272.13477 511.31836 L 260.45898 502.93359 z M 501.0625 605.83789 A 126.61417 126.61417 0 0 1 468.19141 638.60742 L 470.5293 652.84766 A 139.84252 139.84252 0 0 0 515.19336 608.23242 L 501.0625 605.83789 z M 292.31836 606.0332 L 278.07617 608.37109 A 139.84252 139.84252 0 0 0 322.69336 653.03711 L 325.08594 638.9043 A 126.61417 126.61417 0 0 1 292.31836 606.0332 z M 527.13672 610.25391 A 151.1811 151.1811 0 0 1 472.50586 664.87891 L 478.64453 702.27734 L 634.67383 772.51562 L 564.58594 616.5957 L 527.13672 610.25391 z M 266.04688 610.3457 L 228.64648 616.48633 L 158.41016 772.51562 L 314.32812 702.42773 L 320.66992 664.97656 A 151.1811 151.1811 0 0 1 266.04688 610.3457 z M 419.87305 658.74805 A 126.61417 126.61417 0 0 1 396.54102 660.99609 A 126.61417 126.61417 0 0 1 373.47852 658.78906 L 365.09375 670.4668 A 139.84252 139.84252 0 0 0 396.54102 674.22461 A 139.84252 139.84252 0 0 0 428.1875 670.45117 L 419.87305 658.74805 z M 357.98047 680.37305 L 335.87891 711.1582 L 396.54102 871.15234 L 457.23242 711.3418 L 435.2793 680.4375 A 151.1811 151.1811 0 0 1 396.54297 685.56445 A 151.1811 151.1811 0 0 1 357.98047 680.37305 z "
       transform="scale(0.26458333)"
       id="path819" />
    <text
       xml:space="preserve"
       style="font-style:normal;font-variant:normal;font-weight:500;font-stretch:normal;font-size:45.86111069px;line-height:125%;font-family:Unifont;-inkscape-font-specification:'Unifont, Medium';font-variant-ligatures:normal;font-variant-caps:normal;font-variant-numeric:normal;font-feature-settings:normal;text-align:start;letter-spacing:0px;word-spacing:0px;writing-mode:lr-tb;text-anchor:start;fill:#000000;fill-opacity:1;stroke:none;stroke-width:0.26458332px;stroke-linecap:butt;stroke-linejoin:miter;stroke-opacity:1"
       x="93.453125"
       y="155.72038"
       id="text823"><tspan
         sodipodi:role="line"
         id="tspan821"
         x="93.453125"
         y="155.72038"
         style="font-style:normal;font-variant:normal;font-weight:500;font-stretch:normal;font-size:45.86111069px;font-family:Unifont;-inkscape-font-specification:'Unifont, Medium';font-variant-ligatures:normal;font-variant-caps:normal;font-variant-numeric:normal;font-feature-settings:normal;text-align:start;writing-mode:lr-tb;text-anchor:start;stroke-width:0.26458332px">S</tspan></text>
  </g>
</svg>
